<svg width="128" height="128" viewBox="0 0 128 128" fill="none" xmlns="http://www.w3.org/2000/svg">
<rect width="128" height="128" fill="#F5F5F5"/>
<rect width="128" height="128" fill="#0C2746"/>
<g clip-path="url(#clip0_0_1)">
<path d="M73 82.3333C73 79.3877 75.3877 77 78.3333 77H105C107.946 77 110.333 79.3877 110.333 82.3333V103.667C110.333 106.612 107.946 109 105 109H78.3333C75.3877 109 73 106.612 73 103.667V82.3333ZM121 90.3333C121 88.8608 119.806 87.6667 118.333 87.6667C116.861 87.6667 115.667 88.8608 115.667 90.3333V106.333C115.667 110.751 112.085 114.333 107.667 114.333H86.3333C84.8608 114.333 83.6667 115.527 83.6667 117C83.6667 118.473 84.8608 119.667 86.3333 119.667H107.667C115.03 119.667 121 113.697 121 106.333V90.3333ZM91.8283 14.1716C90.2661 12.6095 87.7339 12.6095 86.1717 14.1716C84.6096 15.7336 84.6096 18.2663 86.1717 19.8284L102.01 35.6667H75.6667C66.0939 35.6667 58.3333 43.427 58.3333 53V69C58.3333 73.3829 55.3125 77.0603 51.2392 78.0629C49.2611 68.3275 40.6529 61 30.3333 61C18.5513 61 9 70.5515 9 82.3333C9 94.1152 18.5513 103.667 30.3333 103.667C40.8023 103.667 49.51 96.1259 51.3209 86.1792C59.7963 85.0453 66.3333 77.7861 66.3333 69V53C66.3333 47.8453 70.512 43.6667 75.6667 43.6667H102.01L86.1717 59.5051C84.6096 61.0672 84.6096 63.5995 86.1717 65.1616C87.7339 66.7237 90.2661 66.7237 91.8283 65.1616L114.495 42.4951C116.057 40.933 116.057 38.4003 114.495 36.8382L91.8283 14.1716ZM17 82.3333C17 74.9696 22.9695 69 30.3333 69C37.6971 69 43.6667 74.9696 43.6667 82.3333C43.6667 89.6971 37.6971 95.6667 30.3333 95.6667C22.9695 95.6667 17 89.6971 17 82.3333Z" fill="#2D4552"/>
<path d="M74 81.3333C74 78.3877 76.3877 76 79.3333 76H106C108.946 76 111.333 78.3877 111.333 81.3333V102.667C111.333 105.612 108.946 108 106 108H79.3333C76.3877 108 74 105.612 74 102.667V81.3333ZM122 89.3333C122 87.8608 120.806 86.6667 119.333 86.6667C117.861 86.6667 116.667 87.8608 116.667 89.3333V105.333C116.667 109.751 113.085 113.333 108.667 113.333H87.3333C85.8608 113.333 84.6667 114.527 84.6667 116C84.6667 117.473 85.8608 118.667 87.3333 118.667H108.667C116.03 118.667 122 112.697 122 105.333V89.3333ZM92.8283 13.1716C91.2661 11.6095 88.7339 11.6095 87.1717 13.1716C85.6096 14.7336 85.6096 17.2663 87.1717 18.8284L103.01 34.6667H76.6667C67.0939 34.6667 59.3333 42.427 59.3333 52V68C59.3333 72.3829 56.3125 76.0603 52.2392 77.0629C50.2611 67.3275 41.6529 60 31.3333 60C19.5513 60 10 69.5515 10 81.3333C10 93.1152 19.5513 102.667 31.3333 102.667C41.8023 102.667 50.51 95.1259 52.3209 85.1792C60.7963 84.0453 67.3333 76.7861 67.3333 68V52C67.3333 46.8453 71.512 42.6667 76.6667 42.6667H103.01L87.1717 58.5051C85.6096 60.0672 85.6096 62.5995 87.1717 64.1616C88.7339 65.7237 91.2661 65.7237 92.8283 64.1616L115.495 41.4951C117.057 39.933 117.057 37.4003 115.495 35.8382L92.8283 13.1716ZM18 81.3333C18 73.9696 23.9695 68 31.3333 68C38.6971 68 44.6667 73.9696 44.6667 81.3333C44.6667 88.6971 38.6971 94.6667 31.3333 94.6667C23.9695 94.6667 18 88.6971 18 81.3333Z" fill="url(#paint0_linear_0_1)"/>
<rect x="67" y="72" width="58" height="51" fill="#0C2746"/>
<g clip-path="url(#clip1_0_1)">
<path d="M81.3543 97.8755C79.628 99.6533 78.8667 101.463 78.5671 103.004C78.9899 101.763 79.7383 100.416 81.0298 99.0865C82.3507 97.727 83.7 96.9522 84.9374 96.5243L84.4347 95.6537C83.4348 96.1152 82.386 96.8131 81.3543 97.8755ZM72.7233 93.1004L66.2222 99.5471C66.2222 99.5471 66.4759 99.6638 66.8867 99.7778L72.3986 94.3115C72.3986 94.3115 72.9918 95.5517 72.8049 97.0755C73.6572 95.0569 72.7233 93.1004 72.7233 93.1004ZM89.5449 107.414C80.4328 116.55 67.5048 107.342 62.0292 101.849C59.5011 99.3143 57.8425 97.2466 56.9042 95.8361C56.8065 95.6898 56.7371 95.5589 56.68 95.4353C56.1398 95.7923 56.0398 96.2379 56.5798 97.0473C57.5176 98.457 59.1761 100.525 61.7048 103.06C67.179 108.552 80.1078 117.76 89.2199 108.625C91.2032 106.636 92.3023 104.465 92.7775 102.229C92.1932 104.037 91.1666 105.787 89.5449 107.414ZM76.7506 80.5715L77.194 81.3394L81.4262 78.8959C81.1824 78.6741 80.9535 78.4797 80.7217 78.2788L76.7506 80.5715Z" fill="#2D4552"/>
<path d="M85.5801 83.9062C87.7956 83.3479 89.5726 84.1011 90.7865 84.9749L93.2567 84.3523C93.2567 84.3523 90.581 80.3864 86.2294 81.4829C82.1584 82.5084 81.7019 86.6879 81.6595 87.2191C82.2584 85.9069 83.4014 84.4557 85.5801 83.9062ZM104.249 77.2279C100.172 78.2508 99.7196 82.4359 99.6781 82.9595C100.278 81.6477 101.42 80.1968 103.6 79.6502C105.812 79.0944 107.588 79.8465 108.804 80.7201L111.278 80.0981C111.278 80.0981 108.597 76.1341 104.249 77.2279ZM108.432 89.3427L87.9284 94.5998C87.9284 94.5998 88.679 95.4585 90.1366 96.2897L107.4 91.8634C108.215 90.4489 108.432 89.3427 108.432 89.3427ZM102.326 107.033C86.1834 111.355 77.5904 92.5691 74.9796 82.8234C73.9028 78.8076 73.3677 75.6696 73.1612 73.4783C72.6312 73.6543 72.3829 74.1303 72.4504 75.1427C72.5946 77.3393 73.1238 80.7458 74.3307 85.2456C76.942 94.9907 85.5347 113.776 101.676 109.454C109.284 107.415 112.868 101.769 114.261 95.3472C112.529 100.733 108.957 105.255 102.326 107.033Z" fill="#2D4552"/>
<path d="M89.1628 102.07L87.0878 98.4759L78.7367 107.073C78.7367 107.073 76.9993 102.36 81.3543 97.8755C82.6752 96.516 84.0245 95.741 85.2618 95.3133L76.7506 80.5715L81.7506 77.6847C80.235 76.3168 78.9606 75.3257 77.9986 74.6811C76.407 73.614 76.2269 75.0345 75.3463 77.442C74.7254 79.1365 72.9283 83.0242 69.0765 86.8869C65.2251 90.7505 61.349 92.5534 59.6565 93.1753C57.2579 94.0584 55.8404 94.238 56.905 95.8356C57.8428 97.2454 59.5014 99.3131 62.03 101.849C67.5043 107.341 80.4331 116.549 89.5452 107.413C91.9253 105.027 93.048 102.377 93.3224 99.6675L89.1624 102.069L89.1628 102.07ZM66.2214 99.5476L72.7233 93.1004C72.7233 93.1004 74.2029 96.1793 71.7658 98.5968C69.3274 101.014 66.2214 99.5476 66.2214 99.5476Z" fill="#E2574C"/>
<path d="M84.1695 101.48L78.7362 107.072C78.7362 107.072 77.1209 102.645 80.9867 98.2885L69.3378 86.6072L69.0757 86.8874C65.2244 90.7511 61.3482 92.5538 59.6557 93.1758C57.2572 94.059 55.8396 94.2385 56.9044 95.8362C57.8422 97.246 59.5006 99.3135 62.0294 101.849C67.5035 107.341 80.4324 116.549 89.5444 107.414L89.8047 107.13L84.1695 101.48ZM66.2215 99.5477L72.7233 93.1004C72.7233 93.1004 74.2029 96.1793 71.7658 98.5968C69.3275 101.014 66.2215 99.5477 66.2215 99.5477Z" fill="#D65348"/>
<path d="M99.9891 97.2864L99.6502 97.3857C91.9674 99.255 87.9284 94.5998 87.9284 94.5998L98.5006 91.8887L92.6278 70.5868L92.5606 70.6051C85.7353 72.4349 80.2149 71.9305 77.9094 71.5263C74.6414 70.953 72.9321 70.2303 73.0983 72.7203C73.2437 74.9172 73.773 78.3237 74.9797 82.8235C77.5912 92.5686 86.1838 111.354 102.325 107.032L102.649 106.931L99.9891 97.2864ZM81.6552 87.2771C81.6552 87.2771 81.88 82.5793 86.2291 81.4842C90.5807 80.3877 93.2564 84.3536 93.2564 84.3536L81.6552 87.2771Z" fill="#1D8D22"/>
<path d="M84.4461 101.195L82.9893 102.695C84.7405 104.778 86.7515 106.586 89.0259 107.895C89.1988 107.737 89.3737 107.586 89.5436 107.414C89.9902 106.966 90.3788 106.506 90.7398 106.041C88.3775 104.887 86.2805 103.199 84.4461 101.195ZM74.3308 85.2457C75.3647 89.104 77.3405 94.3759 80.3462 99.0727C80.6419 98.6736 80.9666 98.2734 81.3538 97.8747L81.6347 97.6164C78.2665 92.6905 76.0849 86.9489 74.9797 82.8235C74.7006 81.7796 74.4586 80.7985 74.2486 79.8745C74.0014 80.3488 73.7278 80.8466 73.4002 81.3858C73.653 82.5699 73.9561 83.8486 74.3308 85.2457Z" fill="#C04B41"/>
<path d="M105.708 64.0804C103.916 65.5806 99.3856 68.7768 92.5614 70.6047C85.7361 72.4345 80.2155 71.9301 77.9102 71.5258C74.6422 70.9526 72.9329 70.2298 73.0991 72.7198C73.2437 74.9172 73.773 78.3237 74.9797 82.8235C77.5912 92.5686 86.1838 111.354 102.325 107.032C118.462 102.708 116.509 82.1428 113.897 72.3969C112.691 67.8978 111.445 64.683 110.472 62.7077C109.371 60.4696 108.252 61.95 105.708 64.0804ZM81.6552 87.2771C81.6552 87.2771 81.88 82.5793 86.2291 81.4842C90.5806 80.3877 93.2564 84.3536 93.2564 84.3536L81.6552 87.2771ZM99.6511 97.3854C91.9682 99.2545 87.9292 94.5994 87.9292 94.5994L108.432 89.3428C108.432 89.342 107.254 95.5308 99.6511 97.3854ZM99.6749 83.0126C99.6749 83.0126 99.8981 78.3189 104.248 77.2273C108.598 76.1342 111.278 80.0974 111.278 80.0974L99.6749 83.0126Z" fill="#2EAD33"/>
</g>
</g>
<defs>
<linearGradient id="paint0_linear_0_1" x1="107" y1="30" x2="16" y2="94" gradientUnits="userSpaceOnUse">
<stop stop-color="#299C35"/>
<stop offset="1" stop-color="#D65348"/>
</linearGradient>
<clipPath id="clip0_0_1">
<rect width="128" height="128" fill="white"/>
</clipPath>
<clipPath id="clip1_0_1">
<rect width="74" height="74" fill="white" transform="translate(39 75) rotate(-30)"/>
</clipPath>
</defs>
</svg>
