<?xml version="1.0" encoding="UTF-8" standalone="no"?>
<!-- Copyright (c) Microsoft Corporation. All rights reserved. Licensed under the MIT license. -->

<svg version="1.1" viewBox="0 0 310.57227 75" xmlns="http://www.w3.org/2000/svg" xmlns:cc="http://creativecommons.org/ns#" xmlns:dc="http://purl.org/dc/elements/1.1/" xmlns:rdf="http://www.w3.org/1999/02/22-rdf-syntax-ns#"><title>explorer</title><metadata id="metadata4142"><rdf:RDF><cc:Work rdf:about=""><dc:format>image/svg+xml</dc:format><dc:type rdf:resource="http://purl.org/dc/dcmitype/StillImage"/><dc:title>Rush Lockfile Explorer</dc:title><cc:license rdf:resource="https://opensource.org/licenses/MIT"/><dc:creator><cc:Agent><dc:title>https://github.com/octogonz</dc:title></cc:Agent></dc:creator><dc:description>Copyright (c) Microsoft Corporation. All rights reserved. Licensed under the MIT license.</dc:description></cc:Work></rdf:RDF></metadata><g transform="translate(0,1.095)" fill="#ab9e8e"><path d="m40.807617 44.455562c0.508789 0 0.933105 0.50928 0.848144 1.01807-1.27246 8.22949-8.398925 14.93164-19.937011 14.93164-14.083496 0-21.71875-9.41699-21.71875-22.73681 0-13.82862 8.0595702-22.991216 21.379394-22.991216 13.404297 0 21.125 8.992676 21.464356 23.754886 0 0.50879-0.509278 1.01806-1.018067 1.01806h-31.560058c0.424316 9.33203 4.241699 13.74366 11.538086 13.74366 5.259765 0 8.738274-2.46045 10.010742-7.72022 0.169922-0.59375 0.678711-1.01807 1.272949-1.01807zm-19.343262-22.651851c-6.108398 0-9.756836 3.732911-10.859375 10.774411h21.209473c-0.424317-5.68408-3.73291-10.774411-10.350098-10.774411z"/><path d="m72.109863 59.387202c-0.59375 0-1.187988-0.33935-1.527344-0.9331l-8.823242-15.94971-9.24707 16.03467c-0.339844 0.50879-0.933594 0.84814-1.527344 0.84814h-8.65332c-0.424317 0-0.763672-0.50927-0.509278-0.84814l13.489258-21.88867-12.556152-20.106935c-0.169434-0.339355 0.08496-0.848145 0.509277-0.848145h9.416992c0.59375 0 1.187989 0.339356 1.526856 0.848145l8.484375 14.762205 7.974609-14.677244c0.339356-0.59375 0.933106-0.933106 1.527344-0.933106h8.312988c0.424805 0 0.763672 0.50879 0.509766 0.848145l-12.046875 20.021975 13.149414 21.97363c0.254883 0.33887-0.08496 0.84814-0.508789 0.84814z"/><path d="m110.0293 60.235352c-5.59961 0-10.01172-2.12061-12.980472-6.19287l0.253908 18.74951c0 0.50879-0.508791 1.01758-1.01758 1.01758h-8.654297c-0.508789 0-1.017578-0.50879-1.017578-1.01758l0.423828-31.72998-0.423828-24.348633c0-0.509277 0.508789-1.018067 1.017578-1.018067h8.399414c0.508789 0 1.018555 0.50879 1.018555 1.018067l-0.169922 4.92041c2.96875-4.241699 7.550784-6.787109 13.404304-6.787109 12.04687 0 18.49511 9.841312 18.49511 22.567382 0 12.64063-7.04199 22.82129-18.74902 22.82129zm-2.71484-7.2959c7.38086 0 11.02832-5.59961 11.02832-14.93164 0-9.92627-3.56348-15.780273-10.85938-15.780273-6.78711 0-10.774416 5.090823-10.859377 14.931643-0.08496 10.09619 3.733407 15.78027 10.690437 15.78027z"/><path d="m137.00391 59.387202c-0.50879 0-1.01855-0.50927-1.01855-1.01806l0.50976-28.84522-0.50976-28.505856c0-0.50927697 0.50976-1.018066 1.01855-1.018066h8.39844c0.50976 0 1.01855 0.508789 1.01855 1.018066l-0.50879 28.505856 0.50879 28.84522c0 0.50879-0.50879 1.01806-1.01855 1.01806z"/><path d="m175.26368 60.405272c-13.74415 0-21.63379-8.9082-21.63379-22.73681 0-13.82862 7.88964-22.991216 21.63379-22.991216 13.74414 0 21.46484 8.907716 21.46484 22.736816 0 13.91357-7.7207 22.99121-21.46484 22.99121zm0-7.21142c7.46582 0 10.94433-5.09034 10.94433-15.52539 0-10.3501-3.56348-15.77979-11.0293-15.77979-7.46582 0.08447-11.02832 5.51416-11.02832 15.86475 0 10.26513 3.64747 15.44043 11.11329 15.44043z"/><path d="m204.61524 59.387202c-0.50977 0-1.01856-0.50927-1.01856-1.01806l0.42383-21.04004-0.42383-20.615723c0-0.509277 0.50879-1.018067 1.01856-1.018067h8.31347c0.50879 0 1.01856 0.50879 0.9336 1.018067l-0.25488 6.787113c3.2246-5.429691 8.99316-8.144535 15.27148-8.144535 0.67871 0 1.35742 0.08447 1.95117 0.169434 0.59375 0.08496 1.01758 0.59375 1.01758 1.187988v5.938476c0 0.509277-0.42383 0.933107-1.01758 0.933107-0.50879-0.0845-1.1875-0.0845-1.86621-0.0845-8.14453 0-14.50781 4.66601-15.10156 14.42236l0.16992 20.44629c0 0.50879-0.50977 1.01806-1.01855 1.01806z"/><path d="m273.75586 44.455562c0.50879 0 0.9336 0.50928 0.84864 1.01807-1.27247 8.22949-8.39942 14.93164-19.93752 14.93164-14.08299 0-21.71873-9.41699-21.71873-22.73681 0-13.82862 8.05957-22.991216 21.37988-22.991216 13.4043 0 21.12402 8.992676 21.46385 23.754886 0 0.50879-0.50877 1.01806-1.01854 1.01806h-31.55957c0.42383 9.33203 4.24219 13.74366 11.53809 13.74366 5.25976 0 8.73828-2.46045 10.01074-7.72022 0.16992-0.59375 0.67871-1.01807 1.27246-1.01807zm-19.34375-22.651851c-6.1084 0-9.75586 3.732911-10.85937 10.774411h21.20996c-0.42383-5.68408-3.73242-10.774411-10.35059-10.774411z"/><path d="m283.33985 59.387202c-0.50977 0-1.01856-0.50927-1.01856-1.01806l0.42383-21.04004-0.42383-20.615723c0-0.509277 0.50879-1.018067 1.01856-1.018067h8.31347c0.50879 0 1.01856 0.50879 0.9336 1.018067l-0.25489 6.787113c3.22461-5.429691 8.99317-8.144535 15.27149-8.144535 0.67871 0 1.35742 0.08447 1.95117 0.169434 0.59375 0.08496 1.01758 0.59375 1.01758 1.187988v5.938476c0 0.509277-0.42383 0.933107-1.01758 0.933107-0.50879-0.0845-1.1875-0.0845-1.86621-0.0845-8.14453 0-14.50781 4.66601-15.10156 14.42236l0.16992 20.44629c0 0.50879-0.50977 1.01806-1.01856 1.01806z"/></g></svg>
