<?xml version="1.0" encoding="UTF-8" standalone="no"?>
<!-- Copyright (c) Microsoft Corporation. All rights reserved. Licensed under the MIT license. -->

<svg version="1.1" viewBox="0 0 268.41016 75" xmlns="http://www.w3.org/2000/svg" xmlns:cc="http://creativecommons.org/ns#" xmlns:dc="http://purl.org/dc/elements/1.1/" xmlns:rdf="http://www.w3.org/1999/02/22-rdf-syntax-ns#"><title>lockfile</title><metadata id="metadata4142"><rdf:RDF><cc:Work rdf:about=""><dc:format>image/svg+xml</dc:format><dc:type rdf:resource="http://purl.org/dc/dcmitype/StillImage"/><dc:title>Rush Lockfile Explorer</dc:title><cc:license rdf:resource="https://opensource.org/licenses/MIT"/><dc:creator><cc:Agent><dc:title>https://github.com/octogonz</dc:title></cc:Agent></dc:creator><dc:description>Copyright (c) Microsoft Corporation. All rights reserved. Licensed under the MIT license.</dc:description></cc:Work></rdf:RDF></metadata><g transform="translate(0,2.5000033)"><g transform="translate(3.375e-6 -.48000332)" fill="#ab9e8e"><path d="m1.0180665 60.320312c-0.509277 0-1.018067-0.508789-1.018067-1.018066l0.50879-28.845215-0.50879-28.505859c0-0.50879 0.50879-1.018067 1.018067-1.018067h8.398926c0.509277 0 1.0180655 0.509277 1.0180655 1.018067l-0.5087885 28.505859 0.5087885 28.845215c0 0.509277-0.5087885 1.018066-1.0180655 1.018066z"/><path d="m39.277833 61.338379c-13.743654 0-21.633791-8.908204-21.633791-22.736817s7.890137-22.991211 21.633791-22.991211c13.743651 0 21.464354 8.908203 21.464354 22.736817 0 13.913574-7.720703 22.991211-21.464354 22.991211zm0-7.211426c7.465819 0 10.944334-5.090332 10.944334-15.525391 0-10.350586-3.563475-15.780273-11.029296-15.780273-7.465821 0.08496-11.028809 5.514648-11.028809 15.865234 0 10.265625 3.647949 15.44043 11.113771 15.44043z"/><path d="m87.632812 61.338379c-13.490234 0-21.379883-8.908204-21.379883-22.736817s7.889649-22.991211 21.633793-22.991211c10.85937 0 17.816398 6.19336 18.918938 15.355469 0.085 0.509277-0.42383 1.018555-0.93262 1.018555h-7.380858c-0.594719 0-1.10351-0.424317-1.188469-1.018555-1.102541-5.51416-4.920901-8.05957-9.41699-8.05957-7.550791 0-11.11329 5.429687-11.11329 15.610351 0 10.52002 3.64747 15.525391 11.11329 15.610352 5.25976 0.08496 9.07812-3.223633 9.84179-9.416992 0.084-0.59375 0.50879-1.018067 1.10254-1.018067h7.635737c0.50879 0 1.01758 0.509278 0.93262 1.018067-1.01758 9.671875-8.568357 16.628418-19.766598 16.628418z"/><path d="m136.07129 52.09082-7.2959-12.216797-4.75098 5.68457 0.16992 13.743653c0 0.509277-0.50976 1.018066-1.01855 1.018066h-8.39844c-0.50976 0-1.01855-0.508789-1.01855-1.018066l0.50879-28.590821-0.50879-28.760253c0-0.50879 0.50879-1.018067 1.01855-1.018067h8.39844c0.50879 0 1.01855 0.509277 1.01855 1.018067l-0.4248 28.59082 0.085 3.647949 14.42285-16.79834c0.42383-0.423828 1.10254-0.763183 1.69629-0.763183h9.33301c0.42383 0 0.59375 0.424316 0.33887 0.763183l-13.65918 15.101563 15.78027 26.978515c0.25488 0.339844-0.085 0.848633-0.50879 0.848633h-9.92676c-0.59375 0-1.1875-0.339355-1.44238-0.933105z"/><path d="m170.76758 40.892089 0.42382 18.410157c0 0.509277-0.50879 1.018066-1.01757 1.018066h-8.82325c-0.50879 0-1.01855-0.508789-1.01855-1.018066l0.4248-18.410157v-16.628417h-5.76953c-0.50879 0-1.01758-0.50879-1.01758-1.018067v-5.599121c0-0.509277 0.50879-1.018066 1.01758-1.018066h5.76953v-3.309082c0-9.7563477 6.44727-13.319336 12.89551-13.319336 2.20508 0 4.66602 0.254394 6.44727 0.59375 0.59375 0.08496 1.01855 0.59375 1.01855 1.1875v5.514648c0 0.509277-0.50976 0.848633-1.01855 0.763672-1.10254-0.254395-2.54493-0.424316-4.15723-0.424316-3.13867 0-5.1748 1.696777-5.1748 6.617675v2.375489h9.33203c0.50879 0 1.01855 0.508789 1.01855 1.018066v5.599121c0 0.509277-0.50976 1.018067-1.01855 1.018067h-9.33203z"/><path d="m189.25976 60.320312c-0.50879 0-1.01855-0.508789-1.01855-1.018066l0.4248-21.125-0.4248-20.530762c0-0.509277 0.50976-1.018066 1.01855-1.018066h8.65332c0.50879 0 1.01856 0.508789 1.01856 1.018066l-0.42481 20.530762 0.42481 21.125c0 0.509277-0.50977 1.018066-1.01856 1.018066zm0.16992-48.442871c-0.50976 0-1.01855-0.509277-1.01855-1.018066v-8.0595707c0-0.509277 0.50879-1.018554 1.01855-1.018554h8.31348c0.50977 0 1.01856 0.509277 1.01856 1.018554v8.0595707c0 0.508789-0.50879 1.018066-1.01856 1.018066z"/><path d="m208.94043 60.320312c-0.50879 0-1.01856-0.508789-1.01856-1.018066l0.50977-28.845215-0.50977-28.505859c0-0.50879 0.50977-1.018067 1.01856-1.018067h8.39941c0.50879 0 1.01758 0.509277 1.01758 1.018067l-0.50879 28.505859 0.50879 28.845215c0 0.509277-0.50879 1.018066-1.01758 1.018066z"/><path d="m266.37402 45.388672c0.50879 0 0.93262 0.508789 0.84863 1.018066-1.27343 8.229492-8.39941 14.931641-19.9375 14.931641-14.083 0-21.71875-9.416993-21.71875-22.736817 0-13.828613 8.05957-22.991211 21.37891-22.991211 13.40527 0 21.125 8.992676 21.46484 23.754883 0 0.508789-0.50879 1.018066-1.01855 1.018066h-31.55957c0.42383 9.332032 4.24219 13.743653 11.53808 13.743653 5.25977 0 8.73829-2.459961 10.01075-7.720215 0.16992-0.59375 0.67871-1.018066 1.27246-1.018066zm-19.34375-22.651856c-6.1084 0-9.75586 3.73291-10.85937 10.774414h21.20996c-0.42383-5.684082-3.73242-10.774414-10.35059-10.774414z"/></g></g></svg>
