<?xml version="1.0" encoding="UTF-8" standalone="no"?>
<!-- Copyright (c) Microsoft Corporation. All rights reserved. Licensed under the MIT license. -->

<svg version="1.1" viewBox="0 0 129.5 129.5" xmlns="http://www.w3.org/2000/svg" xmlns:cc="http://creativecommons.org/ns#" xmlns:dc="http://purl.org/dc/elements/1.1/" xmlns:rdf="http://www.w3.org/1999/02/22-rdf-syntax-ns#"><title>Rush Lockfile Explorer</title><metadata id="metadata4142"><rdf:RDF><cc:Work rdf:about=""><dc:format>image/svg+xml</dc:format><dc:type rdf:resource="http://purl.org/dc/dcmitype/StillImage"/><dc:title>Rush Lockfile Explorer</dc:title><cc:license rdf:resource="https://opensource.org/licenses/MIT"/><dc:creator><cc:Agent><dc:title>https://github.com/octogonz</dc:title></cc:Agent></dc:creator><dc:description>Copyright (c) Microsoft Corporation. All rights reserved. Licensed under the MIT license.</dc:description></cc:Work></rdf:RDF></metadata><g transform="translate(.067625)"><g transform="translate(0,-12.722473)"><g fill="#68b856"><path d="m88.458313 40.270081c14.681577 0 26.583377-4.947937 26.583377-11.051575s-11.9018-11.051575-26.583377-11.051575c-5.336548 0-10.301697 0.656189-14.465637 1.781555-2.608216-4.176025-10.770508-7.226013-20.450989-7.226013-11.741821 0-21.262329 4.484375-21.327332 10.026917-10.863403 0.08997-19.619018 4.591308-19.619018 10.13977 0 5.604675 8.930298 10.148132 19.94635 10.148132 7.401367 0 13.846619-2.055847 17.289063-5.101623 2.248229 2.84021 7.407653 4.828491 13.41925 4.828491 5.286255 0 9.903381-1.541443 12.472656-3.843323 3.782105 0.859864 8.121094 1.349244 12.735657 1.349244z"/><path d="m114.68896 54.225586c-0.91564-3.778198-5.90637-6.6698-11.94372-6.6698-6.309388 0-11.48639 3.155762-12.051514 7.183716-5.044556 1.088562-8.698731 4.272583-8.698731 8.034485 0 4.659912 5.604004 8.437561 12.516785 8.437561 2.65155 0 5.106384-0.559387 7.13037-1.507569 2.6994 2.71991 7.34033 4.518494 12.62085 4.518494 8.34045 0 15.10175-4.479614 15.10175-10.005554 0-5.430603-6.53412-9.840515-14.67579-9.991333z"/><path d="m49.349426 64.199829c-0.634277-5.419495-7.137878-9.682312-15.082458-9.682312-6.597534 0-12.194153 2.943482-14.270874 7.043579-0.127442-0.0014-0.25116-0.01111-0.379212-0.01111-10.834106 2e-6 -19.616882 5.079592-19.616882 11.345583s8.7827759 11.345581 19.616882 11.345581c4.838806 0 9.260926-1.018067 12.681641-2.697754 3.091125 0.92157 6.728638 1.462769 10.638489 1.462769 11.141845 0 20.174072-4.323365 20.174072-9.656434 0-4.25885-5.767212-7.866394-13.761658-9.149902z"/><path d="m93.598633 120.22247v-3.75384c0-0.69971-0.567261-1.26697-1.267029-1.26697h-55.549316c-0.699768 0-1.267029 0.56726-1.267029 1.26697v3.75384z"/></g><g fill="#ab9e8e"><path d="m88.291687 83.26416c-0.0081-0.02167-0.02136-0.03839-0.02978-0.05975-0.813787-2.879947-2.275335-6.141544-4.636907-9.898624-3.169678-5.042663-6.962036-9.545776-11.054382-13.583191-0.04156-0.04742-0.0661-0.09033-0.112305-0.138977-1.993164-2.099243 8.904419-4.326416 12.003784-18.452087-1.844726-0.114929-3.662048-0.296814-5.40863-0.565857-3.776673 10.460632-12.672058 13.30719-14.033936 12.450378-6.075439-4.847107-12.396972-8.779663-18.180176-11.936889-1.918396 0.950744-4.151062 1.695068-6.595581 2.198242 20.063477 11.801941 36.259461 31.327942 35.325806 45.414428-0.843262 5.000184-20.286743 8.365662-31.297485-4.718505-0.443665 0.01337-0.883606 0.03284-1.335083 0.03284-2.395996 0-4.752198-0.222413-6.996643-0.612671 12.48645 22.457213 36.44104 15.371154 32.860534 19.295163-5.053466 4.85974-12.261718 8.19403-19.425354 11.513h34.610047c-3.838013-7.05267 0.804504-11.3847 3.479248-17.691345 1.990112-4.106628 18.512386-4.468445 22.166626-21.767761-2.03351-0.415467-3.93207-1.085816-5.57239-2.001465-2.18414 11.159607-14.616331 13.602661-15.767393 10.523071z"/><path d="m38.890259 140.95551c0 0.6997 0.567261 1.26696 1.267029 1.26696h7.466003c0.699707 0 1.266968-0.56726 1.266968-1.26696v-3.70527h-10z"/><path d="m32.221766 121.22249h64.670359c0.786106 0 1.382479 0.70843 1.248452 1.48302l-2.161782 12.49378c-0.105094 0.60737-0.632053 1.05098-1.248452 1.05098h-60.346794c-0.6164 0-1.143359-0.44361-1.248452-1.05098l-2.161783-12.49378c-0.134027-0.77459 0.462346-1.48302 1.248452-1.48302z"/><path d="m80.223633 137.25024v3.70527c0 0.6997 0.567261 1.26696 1.266968 1.26696h7.466003c0.699768 0 1.267029-0.56726 1.267029-1.26696v-3.70527z"/></g></g></g></svg>
