<svg width="128" height="128" viewBox="0 0 128 128" fill="none" xmlns="http://www.w3.org/2000/svg">
<rect width="128" height="128" fill="#F5F5F5"/>
<g clip-path="url(#clip0_0_1)">
<mask id="path-1-outside-1_0_1" maskUnits="userSpaceOnUse" x="31.5858" y="67.5858" width="11.3137" height="11.3137" fill="black">
<rect fill="white" x="31.5858" y="67.5858" width="11.3137" height="11.3137"/>
<path d="M33 73.2426L37.2426 69V70.4142L34.4142 73.2426L37.2426 76.0711V77.4853L33 73.2426Z"/>
</mask>
<path d="M33 73.2426L37.2426 69V70.4142L34.4142 73.2426L37.2426 76.0711V77.4853L33 73.2426Z" fill="#2EAD33"/>
<path d="M33 73.2426L32.6465 72.8891C32.4512 73.0844 32.4512 73.4009 32.6465 73.5962L33 73.2426ZM37.2426 69L37.7426 69C37.7427 68.7978 37.6208 68.6155 37.434 68.5381C37.2472 68.4607 37.0321 68.5035 36.8891 68.6465L37.2426 69ZM37.2426 70.4142L37.5962 70.7678C37.69 70.674 37.7426 70.5468 37.7426 70.4142L37.2426 70.4142ZM34.4142 73.2426L34.0607 72.8891C33.8654 73.0844 33.8654 73.4009 34.0607 73.5962L34.4142 73.2426ZM37.2426 76.0711L37.7426 76.0711C37.7426 75.9385 37.69 75.8113 37.5962 75.7175L37.2426 76.0711ZM37.2426 77.4853L36.8891 77.8388C37.0321 77.9818 37.2472 78.0246 37.434 77.9472C37.6208 77.8698 37.7427 77.6875 37.7426 77.4853L37.2426 77.4853ZM33 73.2426L33.3536 73.5962L37.5962 69.3536L37.2426 69L36.8891 68.6465L32.6465 72.8891L33 73.2426ZM37.2426 69L36.7426 69L36.7426 70.4142L37.2426 70.4142L37.7426 70.4142L37.7426 69L37.2426 69ZM37.2426 70.4142L36.8891 70.0607L34.0607 72.8891L34.4142 73.2426L34.7678 73.5962L37.5962 70.7678L37.2426 70.4142ZM34.4142 73.2426L34.0607 73.5962L36.8891 76.4246L37.2426 76.0711L37.5962 75.7175L34.7678 72.8891L34.4142 73.2426ZM37.2426 76.0711L36.7426 76.0711L36.7426 77.4853L37.2426 77.4853L37.7426 77.4853L37.7426 76.0711L37.2426 76.0711ZM37.2426 77.4853L37.5962 77.1317L33.3536 72.8891L33 73.2426L32.6465 73.5962L36.8891 77.8388L37.2426 77.4853Z" fill="#2D4552" mask="url(#path-1-outside-1_0_1)"/>
<mask id="path-3-outside-2_0_1" maskUnits="userSpaceOnUse" x="23.5858" y="69.8787" width="11.3137" height="11.3137" fill="black">
<rect fill="white" x="23.5858" y="69.8787" width="11.3137" height="11.3137"/>
<path d="M33.4853 75.5355L29.2426 79.7782V78.3639L32.0711 75.5355L29.2426 72.7071V71.2929L33.4853 75.5355Z"/>
</mask>
<path d="M33.4853 75.5355L29.2426 79.7782V78.3639L32.0711 75.5355L29.2426 72.7071V71.2929L33.4853 75.5355Z" fill="#2EAD33"/>
<path d="M33.4853 75.5355L33.8388 75.8891C34.0341 75.6938 34.0341 75.3772 33.8388 75.182L33.4853 75.5355ZM29.2426 79.7782L28.7426 79.7782C28.7426 79.9804 28.8645 80.1627 29.0513 80.2401C29.2381 80.3175 29.4532 80.2747 29.5962 80.1317L29.2426 79.7782ZM29.2426 78.3639L28.8891 78.0104C28.7953 78.1042 28.7426 78.2313 28.7426 78.3639L29.2426 78.3639ZM32.0711 75.5355L32.4246 75.8891C32.6199 75.6938 32.6199 75.3772 32.4246 75.182L32.0711 75.5355ZM29.2426 72.7071L28.7426 72.7071C28.7426 72.8397 28.7953 72.9669 28.8891 73.0606L29.2426 72.7071ZM29.2426 71.2929L29.5962 70.9393C29.4532 70.7963 29.2381 70.7536 29.0513 70.8309C28.8645 70.9083 28.7426 71.0907 28.7426 71.2929L29.2426 71.2929ZM33.4853 75.5355L33.1317 75.182L28.8891 79.4246L29.2426 79.7782L29.5962 80.1317L33.8388 75.8891L33.4853 75.5355ZM29.2426 79.7782L29.7426 79.7782L29.7426 78.3639L29.2426 78.3639L28.7426 78.3639L28.7426 79.7782L29.2426 79.7782ZM29.2426 78.3639L29.5962 78.7175L32.4246 75.8891L32.0711 75.5355L31.7175 75.182L28.8891 78.0104L29.2426 78.3639ZM32.0711 75.5355L32.4246 75.182L29.5962 72.3535L29.2426 72.7071L28.8891 73.0606L31.7175 75.8891L32.0711 75.5355ZM29.2426 72.7071L29.7426 72.7071L29.7426 71.2929L29.2426 71.2929L28.7426 71.2929L28.7426 72.7071L29.2426 72.7071ZM29.2426 71.2929L28.8891 71.6464L33.1317 75.8891L33.4853 75.5355L33.8388 75.182L29.5962 70.9393L29.2426 71.2929Z" fill="#2D4552" mask="url(#path-3-outside-2_0_1)"/>
<line x1="35" y1="102" x2="106" y2="102" stroke="url(#paint0_linear_0_1)" stroke-width="4"/>
<rect x="14" y="90" width="100" height="24" rx="3" stroke="url(#paint1_linear_0_1)" stroke-width="4"/>
<rect x="24" y="15" width="82" height="69" rx="3" stroke="url(#paint2_linear_0_1)" stroke-width="4"/>
<line x1="23" y1="102" x2="31" y2="102" stroke="#D65348" stroke-width="4"/>
<g clip-path="url(#clip1_0_1)">
<path d="M56.499 58.4937C54.7261 60.3196 53.9441 62.1778 53.6365 63.7611C54.0707 62.4863 54.8394 61.1026 56.1657 59.7375C57.5224 58.3412 58.9081 57.5456 60.1789 57.1061L59.6627 56.2119C58.6358 56.6859 57.5586 57.4026 56.499 58.4937ZM47.6347 53.5896L40.9579 60.2106C40.9579 60.2106 41.2185 60.3304 41.6404 60.4475L47.3013 54.8335C47.3013 54.8335 47.9105 56.1072 47.7186 57.6722C48.5939 55.599 47.6347 53.5896 47.6347 53.5896ZM64.911 68.2905C55.5526 77.6732 42.2751 68.2157 36.6517 62.5748C34.0552 59.9715 32.3518 57.8479 31.3881 56.3992C31.2877 56.249 31.2165 56.1146 31.1579 55.9876C30.6031 56.3542 30.5004 56.8119 31.0549 57.6431C32.0181 59.091 33.7214 61.2144 36.3184 63.8188C41.9406 69.4591 55.2188 78.9161 64.5772 69.5335C66.6141 67.4911 67.7429 65.2613 68.2309 62.965C67.6309 64.8213 66.5765 66.6192 64.911 68.2905ZM51.7709 40.7221L52.2263 41.5107L56.5729 39.0012C56.3225 38.7735 56.0874 38.5737 55.8493 38.3674L51.7709 40.7221Z" fill="#2D4552"/>
<path d="M60.8391 44.1469C63.1144 43.5735 64.9395 44.3471 66.1862 45.2444L68.7231 44.6051C68.7231 44.6051 65.9751 40.532 61.5059 41.6581C57.3249 42.7114 56.856 47.0038 56.8125 47.5493C57.4275 46.2017 58.6015 44.7112 60.8391 44.1469ZM80.0122 37.2881C75.8252 38.3387 75.3607 42.6368 75.318 43.1747C75.9344 41.8274 77.1074 40.3373 79.3456 39.7758C81.6182 39.2051 83.4416 39.9775 84.6904 40.8747L87.2318 40.2359C87.2318 40.2359 84.4785 36.1647 80.0122 37.2881ZM84.3085 49.7303L63.2508 55.1296C63.2508 55.1296 64.0217 56.0114 65.5187 56.8651L83.2483 52.3191C84.0853 50.8664 84.3085 49.7303 84.3085 49.7303ZM78.0372 67.8983C61.4586 72.3379 52.6334 53.0439 49.952 43.0348C48.8461 38.9105 48.2966 35.6877 48.0845 33.4371C47.5401 33.6179 47.2851 34.1068 47.3545 35.1466C47.5025 37.4026 48.0461 40.9011 49.2856 45.5225C51.9675 55.531 60.7924 74.8244 77.3703 70.3851C85.1835 68.2912 88.8642 62.4927 90.2956 55.8971C88.5161 61.4289 84.8476 66.0723 78.0372 67.8983Z" fill="#2D4552"/>
<path d="M64.5186 62.8017L62.3875 59.1104L53.8106 67.9398C53.8106 67.9398 52.0263 63.0991 56.499 58.4937C57.8556 57.0975 59.2414 56.3016 60.5122 55.8623L51.7709 40.7221L56.906 37.7573C55.3494 36.3524 54.0406 35.3345 53.0527 34.6725C51.418 33.5766 51.2331 35.0355 50.3287 37.508C49.691 39.2483 47.8453 43.241 43.8894 47.2082C39.9339 51.1762 35.953 53.0278 34.2148 53.6665C31.7513 54.5735 30.2955 54.758 31.3889 56.3987C32.3521 57.8466 34.0555 59.9702 36.6525 62.5744C42.2747 68.2149 55.5529 77.6719 64.9113 68.2892C67.3557 65.8381 68.5088 63.1168 68.7905 60.3342L64.5181 62.8008L64.5186 62.8017ZM40.9572 60.211L47.6347 53.5896C47.6347 53.5896 49.1543 56.7518 46.6514 59.2346C44.1471 61.717 40.9572 60.211 40.9572 60.211Z" fill="#E2574C"/>
<path d="M59.3903 62.196L53.8102 67.939C53.8102 67.939 52.1512 63.3918 56.1215 58.9179L44.1577 46.9209L43.8886 47.2086C39.9332 51.1768 35.9522 53.0283 34.214 53.667C31.7507 54.574 30.2947 54.7584 31.3883 56.3993C32.3514 57.8472 34.0547 59.9706 36.6518 62.575C42.2739 68.2153 55.5521 77.6723 64.9105 68.2897L65.1778 67.9987L59.3903 62.196ZM40.9573 60.2112L47.6347 53.5896C47.6347 53.5896 49.1543 56.7517 46.6514 59.2345C44.1471 61.717 40.9573 60.2112 40.9573 60.2112Z" fill="#D65348"/>
<path d="M75.6375 57.8887L75.2894 57.9908C67.399 59.9105 63.2508 55.1296 63.2508 55.1296L74.1087 52.3452L68.0772 30.4676L68.0082 30.4863C60.9985 32.3656 55.3288 31.8475 52.961 31.4324C49.6047 30.8437 47.8492 30.1013 48.0199 32.6587C48.1692 34.915 48.7128 38.4135 49.9521 43.035C52.6342 53.0434 61.459 72.3368 78.0367 67.8975L78.3692 67.7939L75.6375 57.8887ZM56.808 47.6089C56.808 47.6089 57.0389 42.7841 61.5056 41.6594C65.9747 40.5333 68.7228 44.6064 68.7228 44.6064L56.808 47.6089Z" fill="#1D8D22"/>
<path d="M59.6743 61.9028L58.1782 63.4436C59.9767 65.5825 62.0421 67.4392 64.3779 68.7843C64.5555 68.6219 64.7351 68.4667 64.9097 68.2902C65.3683 67.8299 65.7674 67.3575 66.1382 66.8795C63.7121 65.6949 61.5584 63.9607 59.6743 61.9028ZM49.2857 45.5226C50.3475 49.4852 52.3768 54.8996 55.4636 59.7233C55.7673 59.3134 56.1009 58.9024 56.4985 58.4929L56.787 58.2276C53.3278 53.1686 51.0872 47.2719 49.9521 43.035C49.6655 41.9629 49.417 40.9552 49.2012 40.0062C48.9474 40.4933 48.6664 41.0046 48.33 41.5584C48.5895 42.7745 48.9008 44.0877 49.2857 45.5226Z" fill="#C04B41"/>
<path d="M81.5106 23.7852C79.6707 25.326 75.0177 28.6086 68.009 30.4859C60.9993 32.3651 55.3295 31.8471 52.9619 31.4319C49.6055 30.8432 47.85 30.1009 48.0207 32.6582C48.1692 34.915 48.7128 38.4135 49.9521 43.035C52.6342 53.0434 61.4591 72.3368 78.0368 67.8977C94.6098 63.4569 92.6035 42.3359 89.9211 32.3265C88.6823 27.7059 87.4026 24.4041 86.4038 22.3755C85.2733 20.0769 84.1239 21.5973 81.5106 23.7852ZM56.808 47.6089C56.808 47.6089 57.0389 42.7841 61.5056 41.6594C65.9747 40.5333 68.7228 44.6064 68.7228 44.6064L56.808 47.6089ZM75.2903 57.9904C67.3998 59.9101 63.2516 55.1291 63.2516 55.1291L84.3085 49.7305C84.3081 49.7297 83.0982 56.0857 75.2903 57.9904ZM75.3148 43.2292C75.3148 43.2292 75.5439 38.4086 80.0118 37.2874C84.4786 36.1649 87.2314 40.2352 87.2314 40.2352L75.3148 43.2292Z" fill="#2EAD33"/>
</g>
</g>
<defs>
<linearGradient id="paint0_linear_0_1" x1="22.6288" y1="104.049" x2="114.669" y2="131.198" gradientUnits="userSpaceOnUse">
<stop stop-color="#D65348"/>
<stop offset="1" stop-color="#2EAD33"/>
</linearGradient>
<linearGradient id="paint1_linear_0_1" x1="-6.12121" y1="89.3725" x2="140.394" y2="91.6334" gradientUnits="userSpaceOnUse">
<stop stop-color="#D65348"/>
<stop offset="1" stop-color="#2EAD33"/>
</linearGradient>
<linearGradient id="paint2_linear_0_1" x1="7.01515" y1="16.5784" x2="128.198" y2="17.1715" gradientUnits="userSpaceOnUse">
<stop stop-color="#D65348"/>
<stop offset="1" stop-color="#2EAD33"/>
</linearGradient>
<clipPath id="clip0_0_1">
<rect width="128" height="128" fill="white"/>
</clipPath>
<clipPath id="clip1_0_1">
<rect width="76" height="76" fill="white" transform="translate(13 35) rotate(-30)"/>
</clipPath>
</defs>
</svg>
